<svg display="none" xmlns="http://www.w3.org/2000/svg" viewBox="0 0 172 172">
    <symbol id="phone" viewBox="0 0 30 30">
        <path d="M0,172v-172h172v172z" fill="none"></path>
        <g>
            <path d="M26.0794 20.4212L24.5899 18.9369C23.9987 18.3439 23.1956 18.0107 22.3581 18.0107C21.5207 18.0107 20.7178 18.3439 20.1266 18.9369L19.4581 19.5999V19.6002C19.2081 19.8556 18.8434 19.963 18.4949 19.8843C17.3896 19.6368 15.6053 18.8737 13.3683 16.6368C11.1262 14.3948 10.363 12.6105 10.1156 11.5053C10.0369 11.1568 10.1442 10.7922 10.3997 10.5421L11.0681 9.87367C11.6572 9.28038 11.9878 8.47823 11.9878 7.64219C11.9878 6.80598 11.6572 6.00381 11.0681 5.41048L9.57864 3.92103C8.9858 3.33103 8.18339 3 7.34685 3C6.5106 3 5.70816 3.33106 5.1153 3.92103L4.65733 4.37897C3.28862 5.73682 2.71385 7.70302 3.13613 9.58412C3.92046 13.1156 6.50986 17.6263 9.44135 20.558C12.3731 23.4842 16.8841 26.0792 20.4102 26.863V26.8633C20.8146 26.9528 21.2277 26.9988 21.642 27C23.1359 26.9977 24.5676 26.4013 25.621 25.3421L26.0789 24.8842C26.669 24.2914 27 23.489 27 22.6527C27 21.8163 26.6689 21.0138 26.0789 20.421L26.0794 20.4212Z"/>
        </g>
    </symbol>
    <symbol id="earth" viewBox="0 0 26 26">
        <path d="M0,172v-172h172v172z" fill="none"></path>
        <g>
            <path d="M13 24C19.0751 24 24 19.0751 24 13C24 6.92487 19.0751 2 13 2C6.92487 2 2 6.92487 2 13C2 19.0751 6.92487 24 13 24Z" stroke="#201C1D" stroke-width="2" stroke-linecap="round" stroke-linejoin="round"/>
            <path d="M2 13H24" stroke="#201C1D" stroke-width="2" stroke-linecap="round" stroke-linejoin="round"/>
            <path d="M13.0001 2C15.7515 5.01219 17.3151 8.92124 17.4001 13C17.3151 17.0788 15.7515 20.9878 13.0001 24C10.2487 20.9878 8.68507 17.0788 8.6001 13C8.68507 8.92124 10.2487 5.01219 13.0001 2V2Z" stroke="#201C1D" stroke-width="2" stroke-linecap="round" stroke-linejoin="round"/>
        </g>
    </symbol>
    <symbol id="arrow" viewBox="0 0 10 10">
        <path d="M0,172v-172h172v172z" fill="none"></path>
        <g>
            <path d="M5.72169 8.75C5.40094 9.30555 4.59906 9.30556 4.27831 8.75L1.39156 3.75C1.07081 3.19444 1.47175 2.5 2.11325 2.5L7.88675 2.5C8.52825 2.5 8.92919 3.19444 8.60844 3.75L5.72169 8.75Z" fill="#201C1D"/>
        </g>
    </symbol>
    <symbol id="arrow2" viewBox="0 0 12 6">
        <path d="M0,172v-172h172v172z" fill="none"></path>
        <g>
            <path d="M11.7445 0.226287C11.9078 0.366375 12 0.559135 12 0.760515C12 0.961796 11.9078 1.15455 11.7445 1.29463L6.74426 5.72646C6.54651 5.90163 6.27832 6 5.99863 6C5.71893 6 5.45073 5.90163 5.25287 5.72646L0.255461 1.29463C0.0921902 1.15454 6.00802e-08 0.961782 6.24802e-08 0.760515C6.48818e-08 0.559124 0.0921902 0.366366 0.255461 0.226286C0.413608 0.0816603 0.63109 -1.42299e-06 0.858431 -1.42027e-06C1.08577 -1.41756e-06 1.30326 0.0816603 1.4614 0.226286L5.89949 4.15757C5.95508 4.20671 6.04527 4.20671 6.10086 4.15757L10.539 0.226287C10.6971 0.0816604 10.9146 -1.30036e-06 11.1419 -1.29765e-06C11.3693 -1.29493e-06 11.5868 0.0816604 11.7449 0.226287L11.7445 0.226287Z" fill="#201C1D"/>
        </g>
    </symbol>
    <symbol id="arrow3" viewBox="0 0 10 20">
        <path d="M0,172v-172h172v172z" fill="none"></path>
        <g>
            <path d="M0.377144 0.425767C0.610624 0.153649 0.931892 7.92759e-07 1.26752 7.63417e-07C1.60299 7.3409e-07 1.92425 0.153649 2.15771 0.425767L9.54411 8.75958C9.83605 9.08916 10 9.53614 10 10.0023C10 10.4684 9.83604 10.9155 9.54411 11.2452L2.15772 19.5742C1.92424 19.8464 1.60297 20 1.26753 20C0.931874 20 0.610612 19.8464 0.377146 19.5742C0.136103 19.3107 -9.19526e-08 18.9482 -1.25077e-07 18.5693C-1.58202e-07 18.1904 0.136102 17.8279 0.377146 17.5643L6.92929 10.1675C7.01118 10.0749 7.01118 9.92455 6.92929 9.8319L0.377144 2.43509C0.136101 2.17151 -1.5903e-06 1.80904 -1.62343e-06 1.43014C-1.65655e-06 1.05124 0.136101 0.688752 0.377144 0.425189L0.377144 0.425767Z" fill="#201C1D"/>
        </g>
    </symbol>
    <symbol id="arrow4" viewBox="0 0 30 30">
        <path d="M0,172v-172h172v172z" fill="none"></path>
        <g>
            <path d="M14.3917 6.89844L6.00098 15.023L14.3917 23.1475" stroke="black" stroke-width="2" stroke-linecap="round" stroke-linejoin="round" fill="#ffffff"/>
            <path d="M6.00098 15.0229H24.0003" stroke="black" stroke-width="2" stroke-linecap="round" stroke-linejoin="round" fill="#ffffff"/>
        </g>
    </symbol>
    <symbol id="location" viewBox="0 0 30 31">
        <path d="M0,172v-172h172v172z" fill="none"></path>
        <g>
            <path d="M17.0909 12.9301C17.0909 13.6123 16.818 14.2663 16.3322 14.7487C15.8462 15.2309 15.1873 15.5019 14.5 15.5019C13.8128 15.5019 13.1539 15.2309 12.6679 14.7487C12.1821 14.2663 11.9092 13.6123 11.9092 12.9301C11.9092 12.2479 12.1821 11.5939 12.6679 11.1115C13.1539 10.6292 13.8128 10.3583 14.5 10.3583C15.1873 10.3583 15.8462 10.6292 16.3322 11.1115C16.818 11.5939 17.0909 12.2479 17.0909 12.9301ZM23.9999 12.9301C23.9999 17.9537 15.4846 26.8609 15.1219 27.2377C14.959 27.4053 14.7346 27.5 14.4999 27.5C14.2653 27.5 14.041 27.4053 13.878 27.2377C13.5154 26.8605 5 17.9537 5 12.9301C5 10.4291 6.00086 8.03044 7.78249 6.26202C9.56412 4.4935 11.9803 3.5 14.5 3.5C17.0197 3.5 19.436 4.4935 21.2175 6.26202C22.9991 8.03054 24 10.4289 24 12.9301H23.9999ZM18.8182 12.9301C18.8182 11.7933 18.3632 10.7031 17.5534 9.89924C16.7435 9.09536 15.6453 8.64375 14.5 8.64375C13.3548 8.64375 12.2566 9.09535 11.4467 9.89924C10.6369 10.7031 10.1819 11.7933 10.1819 12.9301C10.1819 14.0669 10.6369 15.1571 11.4467 15.961C12.2566 16.7648 13.3548 17.2164 14.5 17.2164C15.6453 17.2164 16.7435 16.7648 17.5534 15.961C18.3632 15.1571 18.8182 14.0669 18.8182 12.9301Z" fill="#201C1D"/>
        </g>
    </symbol>
    <symbol id="time" viewBox="0 0 30 31">
        <path d="M0,172v-172h172v172z" fill="none"></path>
        <g>
            <path d="M15 3.5C11.8175 3.5 8.76536 4.76428 6.51466 7.01466C4.26428 9.26504 3 12.3173 3 15.5C3 18.6827 4.26428 21.7346 6.51466 23.9853C8.76504 26.2357 11.8173 27.5 15 27.5C18.1827 27.5 21.2346 26.2357 23.4853 23.9853C25.7357 21.735 27 18.6827 27 15.5C26.9963 12.3185 25.731 9.26852 23.4812 7.01888C21.2317 4.76913 18.1818 3.5038 15.0001 3.50011L15 3.5ZM19.6153 16.4229H15C14.7552 16.4229 14.5203 16.3257 14.3473 16.1526C14.1742 15.9795 14.0769 15.7446 14.0769 15.4998V8.11532C14.0769 7.78545 14.2529 7.48073 14.5385 7.3159C14.824 7.15106 15.176 7.15106 15.4615 7.3159C15.7471 7.48073 15.9231 7.78546 15.9231 8.11532V14.5768H19.6153C19.9452 14.5768 20.2499 14.7527 20.4148 15.0383C20.5796 15.3239 20.5796 15.6758 20.4148 15.9614C20.2499 16.2469 19.9452 16.4229 19.6153 16.4229Z" fill="#201C1D"/>
        </g>
    </symbol>
    <symbol id="instagram" viewBox="0 0 30 31">
        <path d="M0,172v-172h172v172z" fill="none"></path>
        <g>
            <path d="M18.5744 3.5H11.4256C9.19182 3.50228 7.04992 4.39066 5.47017 5.97017C3.89042 7.54968 3.00228 9.69165 3 11.9256V19.0744C3.00228 21.3082 3.89066 23.4501 5.47017 25.0298C7.04968 26.6096 9.19165 27.4977 11.4256 27.5H18.5744C20.8082 27.4977 22.9501 26.6093 24.5298 25.0298C26.1096 23.4503 26.9977 21.3084 27 19.0744V11.9256C26.9977 9.69182 26.1093 7.54992 24.5298 5.97017C22.9503 4.39042 20.8084 3.50228 18.5744 3.5ZM15 21.0861C13.5185 21.0861 12.0976 20.4975 11.0499 19.4498C10.0021 18.4021 9.41358 16.9812 9.41358 15.4997C9.41358 14.0182 10.0022 12.5973 11.0499 11.5496C12.0976 10.5018 13.5185 9.91329 15 9.91329C16.4815 9.91329 17.9024 10.5019 18.9501 11.5496C19.9979 12.5973 20.5864 14.0182 20.5864 15.4997C20.5844 16.9808 19.9951 18.4003 18.9478 19.4475C17.9006 20.4947 16.4811 21.084 15.0001 21.0861L15 21.0861ZM22.164 10.1738C22.1177 10.2217 22.0664 10.2645 22.0108 10.3015C21.9541 10.337 21.8941 10.3678 21.8321 10.3933C21.7717 10.4198 21.7083 10.4387 21.6431 10.4494C21.5779 10.4638 21.5109 10.4706 21.4441 10.4699C21.3094 10.4683 21.1763 10.4423 21.0509 10.3933C20.9905 10.3678 20.9323 10.337 20.8772 10.3015C20.8211 10.2632 20.7682 10.2205 20.719 10.1738C20.5288 9.98026 20.4224 9.71993 20.4228 9.44865C20.4219 9.38163 20.4288 9.31483 20.4431 9.24941C20.4541 9.18444 20.473 9.12107 20.4994 9.06065C20.525 8.99842 20.5557 8.9387 20.5913 8.88193C20.6298 8.82745 20.6725 8.77639 20.719 8.72874C20.7682 8.68178 20.8211 8.63915 20.8772 8.60109C20.9323 8.5653 20.9905 8.53452 21.0509 8.50899C21.1138 8.48323 21.1788 8.46272 21.2449 8.4479C21.5788 8.3827 21.9235 8.48802 22.164 8.72874C22.2121 8.77502 22.2547 8.82631 22.2917 8.88193C22.329 8.93869 22.3614 8.99842 22.3888 9.06065C22.4127 9.12175 22.4316 9.18512 22.4448 9.24941C22.4567 9.31529 22.4635 9.38185 22.4654 9.44865C22.466 9.72106 22.3575 9.98207 22.164 10.1738H22.164ZM15 11.4451C13.9247 11.4451 12.8934 11.8723 12.1332 12.6328C11.3727 13.393 10.9455 14.4243 10.9455 15.4997C10.9455 16.575 11.3727 17.6062 12.1332 18.3665C12.8934 19.1269 13.9247 19.5542 15 19.5542C16.0753 19.5542 17.1066 19.127 17.8668 18.3665C18.6273 17.6062 19.0545 16.575 19.0545 15.4997C19.0536 14.4246 18.6262 13.394 17.866 12.6338C17.1057 11.8735 16.0751 11.4461 15.0001 11.4452L15 11.4451ZM14.5046 14.0851C14.2113 14.1877 13.9569 14.379 13.7765 14.6322C13.5964 14.8857 13.4993 15.1887 13.4986 15.4996C13.4986 15.9227 13.1558 16.2655 12.7327 16.2655C12.3098 16.2655 11.9667 15.9227 11.9667 15.4996C11.9674 14.8711 12.1632 14.2583 12.5273 13.7461C12.8916 13.2337 13.4059 12.8473 13.9993 12.6401C14.3975 12.5028 14.832 12.7132 14.971 13.111C15.1101 13.5088 14.9017 13.9442 14.5046 14.0851L14.5046 14.0851Z" fill="#201C1D"/>
        </g>
    </symbol>
    <symbol id="whatsapp" viewBox="0 0 30 31">
        <path d="M0,172v-172h172v172z" fill="none"></path>
        <g>
            <path d="M25.2051 9.04986C21.615 3.49982 14.2852 1.8498 8.60089 5.29983C3.06614 8.74986 1.27108 16.2499 4.86119 21.8L5.16037 22.25L3.96366 26.75L8.4513 25.55L8.90006 25.85C10.8447 26.9 12.9389 27.5 15.0332 27.5C17.277 27.5 19.5208 26.9 21.4654 25.7C27.0002 22.1 28.6456 14.7499 25.2051 9.04986ZM22.0638 20.5999C21.4654 21.5 20.7175 22.1 19.6704 22.25C19.072 22.25 18.3241 22.55 15.3323 21.35C12.7893 20.1499 10.6951 18.1999 9.19924 15.9499C8.30171 14.8999 7.85295 13.5499 7.70336 12.1999C7.70336 10.9999 8.15212 9.94987 8.90006 9.19986C9.19924 8.89986 9.49841 8.74986 9.79759 8.74986H10.5455C10.8447 8.74986 11.1439 8.74986 11.2935 9.34986C11.5926 10.0999 12.3406 11.8999 12.3406 12.0499C12.4902 12.1999 12.4902 12.4999 12.3406 12.6499C12.4902 12.9499 12.3406 13.2499 12.191 13.3999C12.0414 13.5499 11.8918 13.8499 11.7422 13.9999C11.4431 14.1499 11.2935 14.4499 11.4431 14.7499C12.0414 15.6499 12.7893 16.5499 13.5373 17.2999C14.4348 18.0499 15.3323 18.6499 16.3794 19.0999C16.6786 19.2499 16.9778 19.2499 17.1274 18.9499C17.277 18.6499 18.0249 17.8999 18.3241 17.5999C18.6233 17.2999 18.7729 17.2999 19.072 17.4499L21.4654 18.6499C21.7646 18.7999 22.0638 18.9499 22.2134 19.0999C22.363 19.5499 22.363 20.1499 22.0638 20.5999Z" fill="#201C1D"/>
        </g>
    </symbol>
    <symbol id="facebook" viewBox="0 0 30 31">
        <path d="M0,172v-172h172v172z" fill="none"></path>
        <g>
            <path d="M7.38226 3.5C4.95468 3.5 3 5.45468 3 7.88225V23.1177C3 25.5453 4.95468 27.5 7.38226 27.5H15.6398V18.1175H13.1588V14.7395H15.6398V11.8535C15.6398 9.5861 17.1057 7.50425 20.4825 7.50425C21.8497 7.50425 22.8608 7.6355 22.8608 7.6355L22.7813 10.79C22.7813 10.79 21.7501 10.7803 20.625 10.7803C19.4073 10.7803 19.212 11.3413 19.212 12.2728V14.7395H22.878L22.7183 18.1175H19.212V27.5H22.6177C25.0453 27.5 27 25.5453 27 23.1178V7.88227C27 5.4547 25.0453 3.50002 22.6177 3.50002H7.38223L7.38226 3.5Z" fill="#201C1D"/>
        </g>
    </symbol>
    <symbol id="cross" viewBox="0 0 20 20">
        <path d="M0,172v-172h172v172z" fill="none"></path>
        <g>
            <path d="M11.4695 9.95046L18.7595 2.66046C18.9234 2.46916 19.009 2.22308 18.9993 1.9714C18.9895 1.71973 18.8852 1.48099 18.7071 1.30289C18.529 1.1248 18.2903 1.02047 18.0386 1.01075C17.7869 1.00102 17.5408 1.08663 17.3495 1.25046L10.0595 8.54046L2.76954 1.24046C2.57824 1.07663 2.33217 0.991025 2.08049 1.00075C1.82881 1.01047 1.59008 1.1148 1.41198 1.29289C1.23389 1.47099 1.12955 1.70973 1.11983 1.9614C1.11011 2.21308 1.19572 2.45915 1.35954 2.65046L8.64954 9.95046L1.34954 17.2405C1.24486 17.3301 1.15984 17.4404 1.09982 17.5645C1.0398 17.6886 1.00606 17.8237 1.00075 17.9614C0.995426 18.0991 1.01863 18.2365 1.06891 18.3648C1.11918 18.4931 1.19544 18.6097 1.29289 18.7071C1.39035 18.8046 1.5069 18.8808 1.63522 18.9311C1.76355 18.9814 1.90088 19.0046 2.0386 18.9993C2.17632 18.9939 2.31145 18.9602 2.43551 18.9002C2.55958 18.8402 2.6699 18.7551 2.75954 18.6505L10.0595 11.3605L17.3495 18.6505C17.5408 18.8143 17.7869 18.8999 18.0386 18.8902C18.2903 18.8804 18.529 18.7761 18.7071 18.598C18.8852 18.4199 18.9895 18.1812 18.9993 17.9295C19.009 17.6778 18.9234 17.4318 18.7595 17.2405L11.4695 9.95046Z" fill="#201C1D"/>
        </g>
    </symbol>
    <symbol id="map-marker" viewBox="0 0 19 24">
        <path d="M0,172v-172h172v172z" fill="none"></path>
        <g>
            <path d="M12.0909 9.43009C12.0909 10.1123 11.818 10.7663 11.3322 11.2487C10.8462 11.7309 10.1873 12.0019 9.50005 12.0019C8.8128 12.0019 8.15393 11.7309 7.66793 11.2487C7.18214 10.7663 6.90918 10.1123 6.90918 9.43009C6.90918 8.74791 7.18214 8.09388 7.66793 7.61146C8.15392 7.12925 8.8128 6.85829 9.50005 6.85829C10.1873 6.85829 10.8462 7.12925 11.3322 7.61146C11.818 8.09387 12.0909 8.74791 12.0909 9.43009ZM18.9999 9.43009C18.9999 14.4537 10.4846 23.3609 10.1219 23.7377C9.95896 23.9053 9.73457 24 9.49995 24C9.26533 24 9.04096 23.9053 8.87804 23.7377C8.51543 23.3605 0 14.4537 0 9.43009C0 6.92908 1.00086 4.53044 2.78249 2.76202C4.56412 0.9935 6.98029 0 9.5 0C12.0197 0 14.436 0.9935 16.2175 2.76202C17.9991 4.53054 19 6.92893 19 9.43009H18.9999ZM13.8182 9.43009C13.8182 8.29326 13.3632 7.20311 12.5534 6.39924C11.7435 5.59536 10.6453 5.14375 9.50005 5.14375C8.35479 5.14375 7.25655 5.59535 6.44672 6.39924C5.63689 7.20312 5.18193 8.29326 5.18193 9.43009C5.18193 10.5669 5.63688 11.6571 6.44672 12.461C7.25656 13.2648 8.35479 13.7164 9.50005 13.7164C10.6453 13.7164 11.7435 13.2648 12.5534 12.461C13.3632 11.6571 13.8182 10.5669 13.8182 9.43009Z" fill="#D70000"/>
        </g>
    </symbol>
    <symbol id="select-light" viewBox="0 0 26 26">
        <path d="M0,172v-172h172v172z" fill="none"></path>
        <g>
            <circle cx="13" cy="13" r="13" fill="#FCFCFC"/>
            <path d="M7.09082 13L11.5226 17.7273L18.909 8.27271" stroke="#201C1D" stroke-width="2" stroke-linecap="round" stroke-linejoin="round"/>
        </g>
    </symbol>
    <symbol id="aside-services" viewBox="0 0 40 40">
        <path d="M0,172v-172h172v172z" fill="none"></path>
        <g>
            <path d="M27.9459 4.10254H12.8347C11.2261 4.10254 9.6834 4.74169 8.54585 5.87917C7.40839 7.01663 6.76953 8.5594 6.76953 10.168V29.5419C6.76953 31.1505 7.40838 32.6932 8.54585 33.8308C9.68332 34.9682 11.2261 35.6074 12.8347 35.6074H23.7003C23.8139 35.611 23.9269 35.5874 24.0294 35.5379H24.0469C24.1466 35.4947 24.2355 35.4297 24.3068 35.3475C24.3554 35.3161 24.3968 35.2747 24.428 35.226L33.7509 25.903C33.7857 25.8858 33.8029 25.8511 33.8377 25.8163C33.876 25.761 33.9108 25.703 33.9416 25.6432V25.6259C33.9894 25.5226 34.0129 25.4102 34.0108 25.2965V10.1683C34.0108 8.55967 33.372 7.01698 32.2345 5.87944C31.097 4.74198 29.5543 4.10281 27.9457 4.10281L27.9459 4.10254ZM14.204 12.4384H26.5774C26.8071 12.4384 27.0277 12.5296 27.1899 12.6922C27.3525 12.8545 27.4438 13.0751 27.4438 13.3048C27.4438 13.5344 27.3525 13.755 27.1899 13.9173C27.0277 14.0799 26.8071 14.1712 26.5774 14.1712H14.204C13.7256 14.1712 13.3376 13.7831 13.3376 13.3048C13.3376 12.8261 13.7256 12.4384 14.204 12.4384V12.4384ZM14.204 18.9888H26.5774C27.0558 18.9888 27.4438 19.3765 27.4438 19.8552C27.4438 20.3339 27.0557 20.7216 26.5774 20.7216H14.204C13.7256 20.7216 13.3376 20.3339 13.3376 19.8552C13.3376 19.3765 13.7256 18.9888 14.204 18.9888ZM20.7892 27.272H14.204C13.7256 27.272 13.3376 26.8843 13.3376 26.4056C13.3376 25.9273 13.7256 25.5393 14.204 25.5393H20.7892C21.0189 25.5393 21.2395 25.6305 21.4017 25.7931C21.5643 25.9554 21.6556 26.176 21.6556 26.4057C21.6556 26.6353 21.5643 26.8559 21.4017 27.0182C21.2395 27.1808 21.0189 27.2721 20.7892 27.2721V27.272ZM24.567 32.6442V30.4953C24.567 29.3463 25.0233 28.2445 25.8359 27.4319C26.6482 26.6196 27.7503 26.163 28.8993 26.163H31.0482L24.567 32.6442Z"/>
        </g>
    </symbol>
    <symbol id="bell" viewBox="0 0 26 26">
        <path d="M0,172v-172h172v172z" fill="none"></path>
        <g>
            <path d="M12.9342 4.49236C12.8251 4.49236 12.7157 4.50411 12.6066 4.5084L12.6064 3.64872C12.6388 3.36752 12.811 3.12007 13.0664 2.98783C13.322 2.85562 13.6277 2.85562 13.8831 2.98783C14.1387 3.12004 14.3109 3.3675 14.3431 3.64872V4.5041C14.2339 4.5041 14.1246 4.48807 14.0155 4.48807L12.9342 4.49236ZM13.4803 23.1109C13.9724 23.1094 14.4503 22.9477 14.8383 22.651C15.2262 22.3545 15.5024 21.9398 15.6232 21.4727H11.3374C11.4582 21.9398 11.7343 22.3545 12.1223 22.651C12.5103 22.9477 12.9882 23.1094 13.4804 23.1109H13.4803ZM21.1036 20.0633C20.9966 20.274 20.7762 20.4068 20.5357 20.4055H6.42452C6.1872 20.4025 5.97026 20.2744 5.85692 20.0702C5.7436 19.8662 5.75179 19.6181 5.87844 19.4216C6.64127 18.401 7.08843 17.1872 7.16713 15.9249V11.2091C7.16941 9.71237 7.77773 8.27744 8.8588 7.21917C9.93968 6.16071 11.4051 5.56513 12.9339 5.56288H14.026C15.5549 5.56512 17.0203 6.16071 18.1012 7.21917C19.1822 8.27744 19.7906 9.71242 19.7928 11.2091V15.9249C19.8715 17.1872 20.3187 18.401 21.0815 19.4216C21.2108 19.6146 21.2192 19.8622 21.1034 20.0632L21.1036 20.0633ZM11.6781 7.55193C11.5393 7.28676 11.2102 7.17767 10.9356 7.30597C10.1188 7.70876 9.44783 8.34691 9.0132 9.13459C8.9433 9.25935 8.92711 9.40611 8.96806 9.54261C9.0092 9.67911 9.10405 9.79398 9.23166 9.86186C9.3128 9.90307 9.40251 9.92489 9.49374 9.92601C9.69468 9.92918 9.88038 9.82177 9.97447 9.64797C10.3017 9.05253 10.8091 8.57071 11.4269 8.26842C11.6961 8.1364 11.8077 7.81789 11.6782 7.55196L11.6781 7.55193Z"/>
        </g>
    </symbol>
</svg>